<svg height="314pt" preserveAspectRatio="xMidYMid meet" viewBox="0 0 385 314" width="385pt" xmlns="http://www.w3.org/2000/svg"><path d="m460 3028c-81-12-192-70-255-133-65-65-121-174-135-265-13-87-13-1353 0-1440 24-150 125-287 262-354 91-44 163-56 351-56 81 0 147-2 147-5 0-5-80-129-112-172-30-41-25-33-225-321-94-136-170-248-169-250 2-1 344 167 760 373l757 375h755c833 0 839 0 957 63 125 66 227 210 247 352 13 92 13 1337 0 1430-14 94-67 201-134 269-64 64-178 121-270 136-81 13-2853 11-2936-2zm2705-100 281-3 58-35c69-42 135-112 165-175 12-25 26-81 31-123 13-101 12-1301-1-1382-19-122-90-221-201-281l-63-34-810-5-810-5-588-293c-324-162-590-292-592-290-1 1 52 82 119 178 172 248 276 400 273 401-1 1-135 5-297 8-341 7-349 9-450 111-65 64-97 126-109 213-13 87-14 1283-1 1380 17 136 97 249 217 308 45 22 63 24 263 29 204 5 1917 3 2515-2z" transform="matrix(.1 0 0 -.1 0 314)"/></svg>